<svg xmlns="http://www.w3.org/2000/svg" viewBox="0 0 1024 1024">
  <defs>
    <linearGradient id="bg" x1="12%" y1="8%" x2="88%" y2="92%">
      <stop offset="0%" stop-color="#fffaf8" />
      <stop offset="55%" stop-color="#f7e5e8" />
      <stop offset="100%" stop-color="#eed2d8" />
    </linearGradient>
    <linearGradient id="petal" x1="0%" y1="0%" x2="100%" y2="100%">
      <stop offset="0%" stop-color="#fff5f4" stop-opacity="0.95" />
      <stop offset="100%" stop-color="#f1cfd5" stop-opacity="0.7" />
    </linearGradient>
    <filter id="shadow" x="-20%" y="-20%" width="140%" height="140%">
      <feDropShadow dx="0" dy="20" stdDeviation="24" flood-color="#a66d79" flood-opacity="0.22" />
    </filter>
  </defs>

  <rect width="1024" height="1024" rx="238" fill="url(#bg)" />

  <g opacity="0.85">
    <circle cx="264" cy="278" r="118" fill="url(#petal)" />
    <circle cx="360" cy="214" r="84" fill="url(#petal)" />
    <circle cx="768" cy="276" r="126" fill="url(#petal)" />
    <circle cx="660" cy="214" r="74" fill="url(#petal)" />
    <circle cx="230" cy="760" r="132" fill="url(#petal)" />
    <circle cx="340" cy="828" r="88" fill="url(#petal)" />
    <circle cx="784" cy="760" r="130" fill="url(#petal)" />
    <circle cx="674" cy="832" r="82" fill="url(#petal)" />
  </g>

  <g filter="url(#shadow)">
    <rect x="104" y="224" width="816" height="576" rx="182" fill="#fffdfc" fill-opacity="0.72" />
  </g>

  <path
    d="M235 724c84-58 170-87 257-87 94 0 182 31 296 103"
    fill="none"
    stroke="#d9aeb7"
    stroke-width="20"
    stroke-linecap="round"
    opacity="0.65"
  />

  <text
    x="512"
    y="578"
    text-anchor="middle"
    font-family="Georgia, 'Times New Roman', serif"
    font-size="238"
    font-style="italic"
    font-weight="700"
    letter-spacing="1"
    fill="#5c3a3a"
  >
    Iolla
  </text>
</svg>
